<svg width="17" height="10" viewBox="0 0 17 10" fill="none" xmlns="http://www.w3.org/2000/svg">
<path d="M0 0H4.74657V9.89657H0V0ZM4.0779 0.638488H0.668673V9.25808H4.0779V0.638488Z" fill="#1E0013"/>
<path d="M4.41213 2.24684H0.334229V1.60835H4.41213V2.24684Z" fill="#1E0013"/>
<path d="M3.33198 3.77107C3.58154 3.77107 3.78384 3.5779 3.78384 3.33961C3.78384 3.10132 3.58154 2.90815 3.33198 2.90815C3.08243 2.90815 2.88013 3.10132 2.88013 3.33961C2.88013 3.5779 3.08243 3.77107 3.33198 3.77107Z" fill="#1E0013"/>
<path d="M3.33198 5.49706C3.58154 5.49706 3.78384 5.30389 3.78384 5.0656C3.78384 4.82732 3.58154 4.63415 3.33198 4.63415C3.08243 4.63415 2.88013 4.82732 2.88013 5.0656C2.88013 5.30389 3.08243 5.49706 3.33198 5.49706Z" fill="#1E0013"/>
<path d="M17 8.21239H5.24805V1.71578H17V8.21239ZM5.91672 7.5739H16.3313V2.35426H5.91672V7.5739Z" fill="#1E0013"/>
<path d="M10.5141 9.77653H9.84546V7.82914H10.5141V9.77653Z" fill="#1E0013"/>
<path d="M12.4028 9.77653H11.7341V7.82914H12.4028V9.77653Z" fill="#1E0013"/>
</svg>
