<svg width="16" height="16" viewBox="0 0 16 16" fill="none" xmlns="http://www.w3.org/2000/svg">
<g clip-path="url(#clip0_429_1874)">
<path fill-rule="evenodd" clip-rule="evenodd" d="M7.99986 0C5.79067 0 3.79064 0.895574 2.34311 2.34311C0.895574 3.79091 0 5.79094 0 7.99986C0 10.2088 0.895574 12.2091 2.34311 13.6566C3.79091 15.1044 5.79094 15.9997 7.99986 15.9997C10.2088 15.9997 12.2088 15.1042 13.6566 13.6566C15.1044 12.2088 15.9997 10.2088 15.9997 7.99986C15.9997 5.79094 15.1042 3.79091 13.6566 2.34311C12.2091 0.895574 10.2091 0 7.99986 0Z" fill="black"/>
<path fill-rule="evenodd" clip-rule="evenodd" d="M4 5H6.36204L8.33647 7.45135L10.5036 5H11.3658L8.74747 7.96176L12 12H9.63796L7.51141 9.35974L5.17724 12H4.3151L7.10042 8.84955L4 5ZM5.31896 5.61901L9.9599 11.381H10.681L6.0401 5.61901H5.31896Z" fill="white"/>
</g>
<defs>
<clipPath id="clip0_429_1874">
<rect width="16" height="16" fill="white"/>
</clipPath>
</defs>
</svg>
