<svg width="10" height="13" viewBox="0 0 10 13" fill="none" xmlns="http://www.w3.org/2000/svg">
<path fill-rule="evenodd" clip-rule="evenodd" d="M0.831767 13H9.16823C9.63036 13 10 12.6941 10 12.3118V0.688235C10 0.305882 9.63036 0 9.16823 0H0.831767C0.36964 0 0 0.305882 0 0.688235V12.3118C0 12.6941 0.36964 13 0.831767 13ZM0.739281 0.70353C0.739281 0.657647 0.776275 0.627059 0.831767 0.627059H9.16823C9.22372 0.627059 9.26072 0.657647 9.26072 0.70353V12.3271C9.26072 12.3729 9.22372 12.4035 9.16823 12.4035H0.831767C0.776275 12.4035 0.739281 12.3729 0.739281 12.3271V0.70353ZM5.47424 11.2412C5.47424 11.427 5.3249 11.5776 5.14068 11.5776C4.95647 11.5776 4.80713 11.427 4.80713 11.2412C4.80713 11.0553 4.95647 10.9047 5.14068 10.9047C5.3249 10.9047 5.47424 11.0553 5.47424 11.2412Z" fill="#1E0013"/>
</svg>
