<svg width="8" height="13" viewBox="0 0 8 13" fill="none" xmlns="http://www.w3.org/2000/svg">
<path d="M7.33457 13H0.66544C0.57795 13.0004 0.491253 12.9829 0.410351 12.9484C0.329449 12.9139 0.255944 12.8633 0.194079 12.7993C0.132213 12.7353 0.0832115 12.6593 0.0499019 12.5756C0.0165924 12.4919 -0.00036578 12.4023 5.9825e-06 12.3118V0.688241C-0.00036578 0.597753 0.0165924 0.508085 0.0499019 0.424411C0.0832115 0.340737 0.132213 0.264714 0.194079 0.200728C0.255944 0.136743 0.329449 0.0860627 0.410351 0.0516118C0.491253 0.0171609 0.57795 -0.000378313 0.66544 6.18749e-06H7.33457C7.42206 -0.000378313 7.50876 0.0171609 7.58966 0.0516118C7.67056 0.0860627 7.74407 0.136743 7.80593 0.200728C7.8678 0.264714 7.9168 0.340737 7.95011 0.424411C7.98342 0.508085 8.00038 0.597753 8.00001 0.688241V12.3118C8.00038 12.4023 7.98342 12.4919 7.95011 12.5756C7.9168 12.6593 7.8678 12.7353 7.80593 12.7993C7.74407 12.8633 7.67056 12.9139 7.58966 12.9484C7.50876 12.9829 7.42206 13.0004 7.33457 13ZM0.66544 0.627065C0.655573 0.62644 0.645691 0.627989 0.636446 0.63161C0.627201 0.635232 0.618806 0.640844 0.611816 0.648073C0.604825 0.655303 0.5994 0.663986 0.595898 0.673547C0.592396 0.683109 0.590898 0.693331 0.591503 0.703536V12.3271C0.590898 12.3373 0.592396 12.3475 0.595898 12.3571C0.5994 12.3666 0.604825 12.3753 0.611816 12.3825C0.618806 12.3898 0.627201 12.3954 0.636446 12.399C0.645691 12.4026 0.655573 12.4042 0.66544 12.4035H7.33457C7.34444 12.4042 7.35432 12.4026 7.36357 12.399C7.37281 12.3954 7.38121 12.3898 7.3882 12.3825C7.39519 12.3753 7.40061 12.3666 7.40411 12.3571C7.40762 12.3475 7.40911 12.3373 7.40851 12.3271V0.703536C7.40911 0.693331 7.40762 0.683109 7.40411 0.673547C7.40061 0.663986 7.39519 0.655303 7.3882 0.648073C7.38121 0.640844 7.37281 0.635232 7.36357 0.63161C7.35432 0.627989 7.34444 0.62644 7.33457 0.627065H0.66544Z" fill="#1E0013"/>
</svg>
