<svg width="16" height="16" viewBox="0 0 16 16" fill="none" xmlns="http://www.w3.org/2000/svg">
<circle cx="8" cy="8" r="7.75" stroke="#1E0013" stroke-width="0.5"/>
<path d="M11.394 11.8182V10.9697C11.394 10.5196 11.2152 10.088 10.8969 9.76976C10.5787 9.45152 10.1471 9.27273 9.69699 9.27273H6.30305C5.85298 9.27273 5.42135 9.45152 5.10311 9.76976C4.78487 10.088 4.60608 10.5196 4.60608 10.9697V11.8182" stroke="black" stroke-width="0.5" stroke-linecap="round" stroke-linejoin="round"/>
<path d="M7.99995 7.57576C8.93716 7.57576 9.69692 6.816 9.69692 5.87879C9.69692 4.94158 8.93716 4.18182 7.99995 4.18182C7.06274 4.18182 6.30298 4.94158 6.30298 5.87879C6.30298 6.816 7.06274 7.57576 7.99995 7.57576Z" stroke="black" stroke-width="0.5" stroke-linecap="round" stroke-linejoin="round"/>
</svg>
